#!OML:ASF E:\Steps\Project 1\Capture day 1\Session 2\Subject.ASF
:FULLY-SPECIFIED
:DEGREES
119
root 16.4513 16.3346 20.7636 -156.165 -3.72959 177.197
lowerback -29.2709 -2.292 -6.77099
upperback -0.732477 -1.25716 -0.25613
thorax 14.7635 -1.24736 2.85165
lowerneck -7.0805 -3.14921 -0.24763
upperneck 1.89403 -4.3903 3.65298
head 1.90002 -2.12861 1.02765
rclavicle 1.52319e-014 1.74931e-014
rhumerus -35.1921 -20.2692 -77.4595
rradius 28.8453
rwrist -0.174427
rhand -9.01729 -413.19
rfingers 7.12502
rthumb 16.9298 277.528
lclavicle 1.52319e-014 1.74931e-014
lhumerus -29.3773 6.07562 81.1128
lradius 19.7237
lwrist -6.62819
lhand -21.9076 -13.0146
lfingers 7.12502
lthumb 4.49799 16.9177
rfemur -20.1687 9.68393 19.0957
rtibia 5.20799
rfoot -17.5209 -5.02863
rtoes -18.2487
lfemur -22.2257 -11.6414 -21.3888
ltibia 9.99766
lfoot -7.88873 -2.18214
ltoes -34.6073
120
root 16.4541 16.3342 20.7615 -156.158 -3.80335 177.26
lowerback -29.31 -2.26963 -6.71581
upperback -0.73944 -1.2469 -0.239213
thorax 14.7725 -1.24 2.8435
lowerneck -7.1296 -3.11594 -0.250282
upperneck 1.83011 -4.34604 3.65708
head 1.88719 -2.10766 1.03076
rclavicle -1.62755e-014 -1.19271e-015
rhumerus -35.1448 -20.204 -77.5085
rradius 28.891
rwrist -0.300565
rhand -8.90102 -412.64
rfingers 7.12502
rthumb 17.0417 278.087
lclavicle -1.62755e-014 -1.19271e-015
lhumerus -29.3372 5.95713 81.1881
lradius 19.8025
lwrist -6.57131
lhand -22.098 -13.1135
lfingers 7.12502
lthumb 4.31413 16.8225
rfemur -20.1064 9.80519 19.1716
rtibia 5.04979
rfoot -17.3781 -5.14564
rtoes -17.9579
lfemur -22.2478 -11.5984 -21.2946
ltibia 10.0365
lfoot -7.93827 -2.29768
ltoes -33.5575
121
root 16.4513 16.3319 20.7641 -156.039 -3.69324 177.246
lowerback -29.3868 -2.22834 -6.69944
upperback -0.789466 -1.20579 -0.228335
thorax 14.7451 -1.22322 2.8606
lowerneck -7.05029 -2.98844 -0.433666
upperneck 1.65221 -4.16306 3.80657
head 1.82035 -2.019 1.11884
rclavicle 5.49143e-015 9.93923e-016
rhumerus -35.0175 -20.014 -77.5367
rradius 28.8246
rwrist -0.32835
rhand -8.87147 -411.837
rfingers 7.12502
rthumb 17.0702 278.893
lclavicle 5.49143e-015 9.93923e-016
lhumerus -29.351 5.86959 81.3358
lradius 19.9802
lwrist -6.41298
lhand -22.0465 -13.071
lfingers 7.12502
lthumb 4.36386 16.8641
rfemur -20.3024 9.80086 19.0979
rtibia 5.07945
rfoot -17.286 -5.00045
rtoes -17.5448
lfemur -22.3681 -11.5828 -21.3373
ltibia 10.0111
lfoot -7.94588 -2.22272
ltoes -34.4966
122
root 16.4568 16.3315 20.762 -156.192 -3.84891 177.318
lowerback -29.2152 -2.28012 -6.68912
upperback -0.776724 -1.2917 -0.14262
thorax 14.6929 -1.25802 2.91964
lowerneck -6.78584 -2.8451 -0.674998
upperneck 1.58761 -3.95428 3.99947
head 1.75909 -1.91544 1.23347
rclavicle -2.43511e-015 4.77083e-015
rhumerus -34.9084 -20.0216 -77.4715
rradius 28.7015
rwrist -0.123309
rhand -8.95076 -411.815
rfingers 7.12502
rthumb 16.9938 278.909
lclavicle -2.43511e-015 4.77083e-015
lhumerus -29.3992 5.75915 81.4813
lradius 20.2149
lwrist -6.23102
lhand -21.4964 -13.3441
lfingers 7.12502
lthumb 4.89505 16.5793
rfemur -20.0595 9.8804 19.2499
rtibia 4.99796
rfoot -17.2927 -5.16104
rtoes -17.7108
lfemur -22.1864 -11.6101 -21.2198
ltibia 9.95491
lfoot -7.91557 -2.2796
ltoes -35.4138
123
root 16.4569 16.331 20.7673 -156.092 -3.85688 177.332
lowerback -29.2513 -2.26506 -6.66338
upperback -0.815159 -1.28811 -0.124059
thorax 14.6645 -1.25618 2.92631
lowerneck -6.65691 -2.76384 -0.840196
upperneck 1.54736 -3.83245 4.08731
head 1.72665 -1.85528 1.29629
rclavicle -2.45996e-015 -2.88238e-014
rhumerus -34.8651 -20.0507 -77.4438
rradius 28.7454
rwrist -0.0698627
rhand -8.97896 -411.786
rfingers 7.12502
rthumb 16.9667 278.935
lclavicle -2.45996e-015 -2.88238e-014
lhumerus -29.2788 5.73076 81.5385
lradius 20.2215
lwrist -6.23408
lhand -21.2408 -13.7381
lfingers 7.12502
lthumb 5.14183 16.1795
rfemur -20.2676 9.87056 19.2383
rtibia 5.14291
rfoot -17.3466 -5.10428
rtoes -17.6044
lfemur -22.3658 -11.6182 -21.1634
ltibia 10.0336
lfoot -7.92865 -2.28799
ltoes -34.9416
124
root 16.4621 16.333 20.764 -156.303 -4.03482 177.422
lowerback -29.0751 -2.27887 -6.60816
upperback -0.752956 -1.32423 -0.083066
thorax 14.6615 -1.26407 2.93248
lowerneck -6.62185 -2.72592 -0.972494
upperneck 1.42795 -3.77345 4.19626
head 1.68647 -1.82736 1.3569
rclavicle 9.19379e-015 1.41137e-014
rhumerus -34.8498 -19.8446 -77.5528
rradius 28.9509
rwrist -0.319563
rhand -9.01056 -411.989
rfingers 7.12502
rthumb 16.9363 278.73
lclavicle 9.19379e-015 1.41137e-014
lhumerus -29.1371 5.65428 81.5759
lradius 20.2268
lwrist -6.18735
lhand -21.3278 -13.7852
lfingers 7.12502
lthumb 5.05782 16.1344
rfemur -19.9988 10.0196 19.4047
rtibia 5.14052
rfoot -17.4757 -5.31741
rtoes -16.757
lfemur -22.1211 -11.5694 -21.0448
ltibia 9.99397
lfoot -7.89454 -2.48488
ltoes -34.5424
125
root 16.4661 16.3316 20.7632 -156.383 -4.13729 177.478
lowerback -29.0026 -2.29112 -6.57431
upperback -0.737307 -1.35526 -0.0482602
thorax 14.6506 -1.27423 2.9422
lowerneck -6.60653 -2.89159 -0.863398
upperneck 1.68676 -4.00648 4.15916
head 1.77035 -1.9385 1.31706
rclavicle -5.81445e-015 5.96354e-015
rhumerus -34.7858 -19.6238 -77.6566
rradius 29.072
rwrist -0.528847
rhand -9.09665 -412.502
rfingers 7.12502
rthumb 16.8534 278.21
lclavicle -5.81445e-015 5.96354e-015
lhumerus -29.141 5.56078 81.6385
lradius 20.4205
lwrist -6.05274
lhand -21.3146 -13.7579
lfingers 7.12502
lthumb 5.07062 16.1614
rfemur -19.8931 10.0369 19.5344
rtibia 5.13995
rfoot -17.5687 -5.39007
rtoes -16.2137
lfemur -22.0218 -11.4369 -20.9887
ltibia 9.94709
lfoot -7.83545 -2.69739
ltoes -34.8589
126
root 16.469 16.3296 20.7631 -156.397 -4.21486 177.523
lowerback -28.9878 -2.31429 -6.54718
upperback -0.738779 -1.40031 -0.00507162
thorax 14.6481 -1.29298 2.95743
lowerneck -6.65999 -3.04667 -0.691246
upperneck 1.96863 -4.2305 4.07258
head 1.87049 -2.04482 1.24959
rclavicle -1.46604e-014 -1.0138e-014
rhumerus -34.6783 -19.6925 -77.638
rradius 29.0253
rwrist -0.348803
rhand -9.13919 -412.643
rfingers 7.12502
rthumb 16.8124 278.065
lclavicle -1.46604e-014 -1.0138e-014
lhumerus -29.1668 5.41466 81.7339
lradius 20.6482
lwrist -5.90505
lhand -21.3691 -13.7134
lfingers 7.12502
lthumb 5.01794 16.2072
rfemur -19.8553 10.0323 19.6339
rtibia 5.1399
rfoot -17.5859 -5.42983
rtoes -16.1468
lfemur -22.018 -11.3328 -20.9315
ltibia 9.9494
lfoot -7.79195 -2.85645
ltoes -34.7178
127
root 16.4708 16.3292 20.7614 -156.452 -4.27091 177.568
lowerback -28.9682 -2.31864 -6.5006
upperback -0.713297 -1.4188 0.00837643
thorax 14.6709 -1.29748 2.94039
lowerneck -6.67466 -2.5877 -0.987695
upperneck 1.33008 -3.59275 4.28635
head 1.66196 -1.73812 1.3947
rclavicle -1.83876e-015 -1.51076e-014
rhumerus -34.5236 -20.0329 -77.5736
rradius 28.8755
rwrist 0.0940126
rhand -8.97714 -412.501
rfingers 7.12502
rthumb 16.9684 278.22
lclavicle -1.83876e-015 -1.51076e-014
lhumerus -29.1181 5.12169 81.8535
lradius 20.8247
lwrist -5.64294
lhand -21.5339 -13.6088
lfingers 7.12502
lthumb 4.85879 16.3154
rfemur -19.7531 10.0751 19.7146
rtibia 5.08501
rfoot -17.5681 -5.50487
rtoes -16.2285
lfemur -21.9727 -11.3213 -20.8725
ltibia 9.96995
lfoot -7.78097 -2.89941
ltoes -34.5536
128
root 16.4723 16.3289 20.7604 -156.498 -4.2781 177.606
lowerback -28.9311 -2.28684 -6.45244
upperback -0.707733 -1.39103 -0.00984432
thorax 14.6564 -1.28026 2.90651
lowerneck -6.73486 -2.57445 -0.876684
upperneck 1.60472 -3.58184 4.14223
head 1.75504 -1.72801 1.32881
rclavicle 5.61567e-015 -9.34288e-015
rhumerus -34.4461 -20.2553 -77.57
rradius 28.8214
rwrist 0.302143
rhand -8.99175 -412.387
rfingers 7.12502
rthumb 16.9544 278.333
lclavicle 5.61567e-015 -9.34288e-015
lhumerus -29.0578 4.83986 81.9271
lradius 20.9191
lwrist -5.45944
lhand -21.7032 -13.4592
lfingers 7.12502
lthumb 4.69532 16.4688
rfemur -19.6918 10.056 19.7925
rtibia 5.06889
rfoot -17.5531 -5.50635
rtoes -16.6745
lfemur -21.9225 -11.2984 -20.8337
ltibia 9.98122
lfoot -7.82978 -2.87657
ltoes -35.0479
129
root 16.471 16.3279 20.7584 -156.591 -4.28227 177.635
lowerback -28.8463 -2.23209 -6.35803
upperback -0.69452 -1.3472 -0.0401959
thorax 14.6265 -1.25109 2.84206
lowerneck -6.76387 -2.57149 -0.8387
upperneck 1.74443 -3.58086 4.08969
head 1.80339 -1.72502 1.30502
rclavicle -8.07563e-015 1.59028e-015
rhumerus -34.4638 -20.2835 -77.5954
rradius 28.8943
rwrist 0.266096
rhand -9.15056 -411.952
rfingers 7.12502
rthumb 16.8015 278.755
lclavicle -8.07563e-015 1.59028e-015
lhumerus -28.9916 4.63842 81.9669
lradius 20.9911
lwrist -5.3383
lhand -21.7625 -13.3712
lfingers 7.12502
lthumb 4.63805 16.5581
rfemur -19.5835 10.0467 19.8457
rtibia 5.08118
rfoot -17.5076 -5.51963
rtoes -17.1102
lfemur -21.8027 -11.3342 -20.8238
ltibia 9.97816
lfoot -7.88975 -2.79621
ltoes -34.8113
130
root 16.47 16.3267 20.7561 -156.7 -4.31329 177.688
lowerback -28.7634 -2.1964 -6.23779
upperback -0.661257 -1.33671 -0.0391164
thorax 14.6251 -1.23556 2.78485
lowerneck -6.83415 -2.60383 -0.817634
upperneck 1.87416 -3.62728 4.06087
head 1.85829 -1.74538 1.28955
rclavicle -2.02263e-014 -7.95139e-015
rhumerus -34.4419 -20.0326 -77.7154
rradius 29.0594
rwrist -0.0116416
rhand -9.22457 -412.073
rfingers 7.12502
rthumb 16.7303 278.628
lclavicle -2.02263e-014 -7.95139e-015
lhumerus -28.9112 4.48185 82.0341
lradius 21.108
lwrist -5.19217
lhand -21.7158 -13.342
lfingers 7.12502
lthumb 4.68323 16.5862
rfemur -19.4281 10.0604 19.936
rtibia 5.05237
rfoot -17.3931 -5.57193
rtoes -17.7114
lfemur -21.6509 -11.386 -20.7787
ltibia 9.93049
lfoot -7.88894 -2.72225
ltoes -35.4304
